<?xml version="1.0" encoding="utf-8"?>
<!-- Generator: Adobe Illustrator 25.3.1, SVG Export Plug-In . SVG Version: 6.00 Build 0)  -->
<svg version="1.1" id="Layer_1" xmlns="http://www.w3.org/2000/svg" xmlns:xlink="http://www.w3.org/1999/xlink" x="0px" y="0px"
	 viewBox="0 0 1257.5 232.9" style="enable-background:new 0 0 1257.5 232.9;" xml:space="preserve">
<style type="text/css">
	.st0{fill:#FFFFFF;}
</style>
<g>
	<path class="st0" d="M1257.5,41.5c-0.1,5.4-0.7,10.1-1.5,13c-0.9,3.2-2.4,5.8-3,9.1c-0.8,5.3-1.9,11-1.9,16.3
		c0,6.1,0.2,11.5,1.6,17.4c1.4,5.7,0.7,12.8-0.3,18.5c-1.2,7.1,0.3,14.8,0.3,21.9v18.9c0,4.3,0.6,9.1-1.3,13.1
		c-1.7,3.7-4.6,4.6-4.6,9c0,4.3-3.2,8.2-3.9,12.4c-0.8,5.3-0.4,10.8-0.4,16.2c0,2.3-0.7,5.7,0.4,7.8c0.4,0.8,1.5,2.2,2.3,2.7
		c2.1,1.4,5.3,9.2,5.9,11.2c-16.5,0-33,0.5-49.1-3c-7.6-1.7-14.2-2.5-22.2-2.5c-5.1,0-11.1-0.2-16.1,0.5c-2.4,0.3-3.9,0.8-6.4,0.9
		c-3.8,0.1-6.7,1.4-10.4,1.4c-3.9,0-7.7,0.3-11.6,0.5c-5.9,0.4-11.7,0.4-17.6,0.4c-4.3-0.1-7.5-1.3-11.4-1.8
		c-3.5-0.4-6.7-0.5-10.2-0.5s-5.9,0.4-9.1,0.9c-7.3,1.1-16.5,1.3-22.8-1.7c-4.9-2.3-11.6-2-17.1-3.2c-3.1-0.7-6.2-1.5-9.1-2.4
		c-2.5-0.8-5.2-0.9-7.6-1.6c-2.4-0.7-5.7-2.7-8.2-2.5c-0.9,0.1-2,1.5-2.7,1.9c-1.4,1-2.5,1.5-4.6,1.7c-3.4,0.4-10.2-0.4-12.7,1
		c-1.7,1-3.7,1.2-5.5,1.9c-4.2,1.8-6.8,2.2-11.3,3.2c-4.9,1-10.7,0.8-15.9,1.1c-4.6,0.3-7.2-0.1-11.2-1.5c-2.1-0.7-6-1.1-8.4-0.7
		c-2.4,0.3-3.8,1.5-5.6,2.5c-3.1,1.6-6.4,1.6-10.1,1.8c-1.7,0.1-3.4,0.3-5.1,0.1c-1.6-0.2-3.1-0.9-4.6-1.3c-2.3-0.7-4.5-1.6-6.5-2.7
		c-5.6-3-8.5-2.9-15.5-2.9c-7.2,0-14.5-0.4-21.6,0.3c-5.6,0.6-10.9,3.3-16.6,3.3c-5.8,0-7.1,2.4-12,3.9c-5.4,1.6-11.8,1.1-17.6,1.1
		l-17.8-1.8c-9.6,0-19-0.1-28.6,0.9c-7.7,0.8-8.2,0-15.9-1.2c-7.9-1.2-32.1,0.7-40.4,0.7c-7.2,0-8.2-2.1-15.3-1.4
		c-4.5,0.4-12.3,4.2-16.5,5c-5.6,1-14,0.8-19.8,1.3c-5.5,0.5-10.3-1-15.2-2.3c-5.8-1.5-9.8-1-15.8-1.1c-20-0.3-26-7.3-46.7-6.7
		c-18,0.6-40.6,3.5-57.5,5.6c-21.3,2.7-1.8-1.6-23.1,0.7c-7.7,0.8-59.2,0.9-66.8-0.3c-7.9-1.2-15.1-1.4-23.3-1.4
		c-7.2,0-14.7,0.9-21.9,1.6c-4.4,0.4-8,1.8-12.2,2.5c-5.6,1-11.8,0.3-17.5,0.8c-5.6,0.5-10.4-1.1-15.5-2.3c-5.2-1.3-10-0.9-15.4-0.9
		c-6,0-12.2-1.4-18.1-2.2c-0.1,0.4-13.3,1.3-14.8,1.2c-5-0.2-9.4-1.5-14.1-2.5c-7.6-1.7-14.2-2.5-22.2-2.5c-5.1,0-11.1-0.1-16.1,0.5
		c-2.4,0.3-3.9,0.8-6.4,0.9c-3.8,0.1-6.7,1.4-10.4,1.4c-3.9,0-7.7,0.3-11.6,0.5c-5.9,0.4-11.7,0.4-17.7,0.4c-4.3,0-7.5-1.4-11.4-1.8
		c-3.5-0.4-6.7-0.5-10.2-0.5c-3.5,0-5.9,0.4-9.1,0.9c-7.3,1.1-16.5,1.3-22.8-1.7c-4.9-2.3-10.6,0.3-16.2-0.9
		c-3.1-0.7-6.2-1.5-9.1-2.4c-2.5-0.8-5.2-0.9-7.6-1.6c-2.4-0.7-10.2-1-10.9-0.6c-1.5,1-2.5,1.5-4.6,1.7c-3.3,0.4-10.2-0.4-12.7,1
		c-1.7,1-3.7,1.2-5.5,1.9c-4.2,1.8-7.8,0-12.2,0.9c-4.9,1-10.7,0.8-15.9,1.1c-4.6,0.3-7.2-0.1-11.2-1.5c-7.2-2.5-24.2,6.5-28.6,1.5
		c-9.8,0-20.4,1-30-0.3c-0.6-6.9,0.5-14.3,2.8-20.8c2-5.6,2.9-10.4,2.9-16.3c0-3.7,0.2-8.2-0.6-11.8c-0.4-1.7-1-2.8-1-4.7
		c-0.1-2.8-1.6-4.9-1.6-7.6c0-2.8-0.4-5.7-0.7-8.5c-0.4-4.3-0.5-8.6-0.4-13c0.1-3.1,1.6-5.5,2.2-8.4c0.5-2.6,0.5-4.9,0.5-7.5
		c0-2.6-0.5-4.3-1-6.6c-1.3-5.3-1.5-12.1,2-16.7C8,99,7.7,94.1,9.1,90c0.8-2.3,1.7-4.5,2.8-6.7c0.9-1.8,1.1-3.8,1.9-5.6
		c0.8-1.7,3.2-4.2,2.9-6c-0.1-0.7-1.7-1.5-2.2-2c-1.1-1.1-1.7-1.9-2-3.4c-0.5-2.5,0.5-7.5-1.2-9.3c-1.2-1.2-1.4-2.8-2.3-4.1
		c-2.2-3.1-2.7-5-3.8-8.3C3.9,41.1,4.2,36.9,3.8,33c-0.4-3.4,0.2-5.3,1.8-8.2c0.9-1.5,1.2-4.4,0.8-6.1c-0.6-2.5-3.5-4.1-4.5-6.6
		C1,10,1.6,6.4,1.6,4.2c0,0,29.2,0.1,29.2,0.1s19.1,0.4,28.7,2.5c7.6,1.7,14.2,2.5,22.2,2.5c5.1,0,11.1,0.1,16.1-0.5
		c2.4-0.3,3.9-0.8,6.4-0.9c3.8-0.1,6.7-1.4,10.4-1.4c3.9,0,7.7-0.3,11.6-0.6c5.9-0.4,11.7-0.4,17.7-0.4c4.3,0.1,7.5,1.4,11.4,1.8
		c3.5,0.4,6.7,0.5,10.2,0.5s5.9-0.4,9.1-0.9c7.3-1.1,16.5-1.3,22.8,1.7c4.9,2.3,11.6,2,17.1,3.2c3.1,0.7,6.2,1.5,9.1,2.4
		c2.5,0.8,5.2,0.9,7.6,1.6c2.4,0.7,5.7,2.7,8.2,2.5c0.9-0.1,2-1.5,2.7-1.9c1.5-1,2.5-1.5,4.6-1.7c3.4-0.4,10.2,0.4,12.7-1
		c1.7-1,3.7-1.1,5.5-1.9c4.2-1.8,6.8-2.2,11.3-3.2c4.9-1,10.7-0.8,15.9-1.1c4.6-0.3,7.2,0.1,11.2,1.5c2.1,0.7,6,1.1,8.4,0.7
		c2.4-0.3,3.8-1.5,5.6-2.5c3.1-1.6,6.4-1.6,10.1-1.8c1.7-0.1,3.5-0.3,5.1-0.1c1.6,0.2,3.1,0.8,4.6,1.3c2.3,0.7,4.5,1.6,6.5,2.7
		c5.6,3,8.5,2.9,15.5,2.9c7.2,0,14.5,0.4,21.6-0.4c5.6-0.6,10.9-3.3,16.6-3.3c5.8,0,7.1-2.4,12-3.9c5.4-1.6,11.8-1.1,17.6-1.1
		l17.8,1.8c9.6,0,19,0.1,28.6-1c7.7-0.8,8.2,0,15.9,1.2C497.1,7,521.3,5,529.5,5c7.2,0,8.2,2.1,15.3,1.3c4.4-0.4,12.3-4.2,16.5-5
		c5.6-1,14-0.8,19.8-1.3c5.5-0.5,10.3,1,15.2,2.3c5.8,1.5,9.8,1,15.8,1.1c20,0.3,26,7.3,46.7,6.7c18-0.6,40.6-3.5,57.5-5.6
		c21.3-2.7,1.8,1.6,23.1-0.7c7.7-0.8,59.2-0.9,66.8,0.3c7.9,1.2,15.1,1.4,23.3,1.4c7.2,0,14.7-0.9,21.9-1.6c4.4-0.4,8-1.8,12.2-2.5
		c5.6-1,11.8-0.3,17.5-0.8c5.6-0.5,10.4,1.1,15.5,2.3c5.2,1.3,10,0.9,15.4,0.9c6,0,12.2,1.4,18.1,2.2c0.1-0.4,13.3-1.3,14.8-1.2
		c5,0.2,9.4,1.5,14.1,2.5c7.6,1.7,14.2,2.5,22.2,2.5c5.1,0,11.1,0.2,16.1-0.5c2.4-0.3,3.9-0.8,6.4-0.9c3.8-0.1,6.7-1.4,10.4-1.4
		c3.9,0,7.7-0.3,11.6-0.5c5.9-0.4,11.7-0.4,17.6-0.4c4.3,0,7.5,1.3,11.4,1.8c3.5,0.4,6.7,0.5,10.2,0.5c3.5,0,5.9-0.4,9.1-0.9
		c7.3-1.1,16.5-1.3,22.8,1.7c4.9,2.3,10.6-0.3,16.2,0.9c3.1,0.7,6.2,1.5,9.1,2.4c2.5,0.8,5.2,0.9,7.6,1.6c2.4,0.7,10.2,1,10.9,0.6
		c1.4-1,2.5-1.5,4.6-1.7c3.3-0.4,10.2,0.4,12.7-1c1.7-1,3.7-1.2,5.5-1.9c4.2-1.8,7.8,0,12.2-0.9c4.9-1,10.7-0.8,15.9-1.1
		c4.6-0.3,7.2,0.1,11.2,1.5c2.1,0.7,5.9,1.1,8.4,0.7c9.9-1.4,19.6-6.1,29.6-6.6C1253.9,3.2,1257.8,25.4,1257.5,41.5z"/>
</g>
</svg>
