<?xml version="1.0" encoding="utf-8"?>
<!-- Generator: Adobe Illustrator 25.3.1, SVG Export Plug-In . SVG Version: 6.00 Build 0)  -->
<svg version="1.1" id="Layer_1" xmlns="http://www.w3.org/2000/svg" xmlns:xlink="http://www.w3.org/1999/xlink" x="0px" y="0px"
	 viewBox="0 0 1200 23.7" style="enable-background:new 0 0 1200 23.7;" xml:space="preserve">
<style type="text/css">
	.st0{fill:#F2F3F7;}
</style>
<path class="st0" d="M1200,6.2v17.5H0L0,4.3h13.6c5.7,0,9.8,1.4,15.1,2.5c7.6,1.7,14.2,2.5,22.2,2.5C56,9.3,62,9.5,67,8.8
	c2.4-0.3,3.9-0.8,6.4-0.9c3.8-0.1,6.7-1.4,10.4-1.4c3.9,0,7.7-0.3,11.6-0.6c5.9-0.4,11.7-0.4,17.6-0.4c4.3,0.1,7.5,1.4,11.4,1.8
	c3.5,0.4,6.7,0.5,10.2,0.5c3.5,0,5.9-0.4,9.1-0.9c7.3-1.1,16.5-1.3,22.8,1.7c4.9,2.3,11.6,2,17.1,3.2c3.1,0.7,6.2,1.5,9.1,2.4
	c2.5,0.8,5.2,0.9,7.6,1.6c2.4,0.7,5.7,2.7,8.2,2.5c0.9-0.1,2-1.5,2.6-1.9c1.5-1,2.5-1.5,4.6-1.7c3.4-0.4,10.2,0.4,12.7-1
	c1.7-1,3.7-1.2,5.5-1.9c4.2-1.8,6.8-2.2,11.3-3.2c4.9-1,10.7-0.8,15.9-1.1c4.6-0.3,7.2,0.1,11.2,1.5c2.1,0.7,6,1.1,8.4,0.7
	c2.4-0.3,3.8-1.5,5.6-2.5c3-1.6,6.4-1.6,10.2-1.8c1.7-0.1,3.4-0.3,5.1-0.1c1.6,0.2,3.1,0.8,4.6,1.3c2.3,0.7,4.5,1.6,6.5,2.6
	c5.6,3,8.5,2.9,15.5,2.9c7.2,0,14.6,0.4,21.6-0.4c5.6-0.6,10.9-3.3,16.6-3.3c5.8,0,7.1-2.4,12-3.9c5.4-1.6,11.8-1.1,17.6-1.1
	l17.8,1.9c9.6,0,19.1,0.1,28.6-1c7.7-0.8,8.2,0,15.9,1.2C466.3,7,490.5,5,498.8,5c7.2,0,8.2,2.1,15.3,1.4c4.5-0.4,12.3-4.3,16.5-5
	c5.6-1,14-0.8,19.8-1.3c5.5-0.5,10.3,1,15.2,2.3c5.8,1.4,9.7,1,15.8,1.1c20,0.3,26,7.3,46.7,6.7c18-0.6,40.6-3.5,57.5-5.6
	c21.3-2.7,1.8,1.6,23.1-0.7c7.7-0.8,59.2-0.9,66.8,0.3c7.9,1.2,15.1,1.4,23.3,1.4c7.2,0,14.7-0.9,21.9-1.6c4.5-0.4,8-1.8,12.2-2.5
	c5.6-1,11.7-0.3,17.5-0.8c5.6-0.5,10.5,1.1,15.5,2.3c5.2,1.3,10,0.9,15.4,0.9c6,0,12.2,1.4,18.1,2.2c0.1-0.4,13.3-1.3,14.8-1.2
	c5,0.2,9.4,1.5,14.1,2.5c7.6,1.7,14.2,2.5,22.2,2.5c5.1,0,11.1,0.1,16.1-0.5c2.4-0.3,3.9-0.8,6.4-0.9c3.8-0.1,6.7-1.4,10.4-1.4
	c3.9,0,7.7-0.3,11.6-0.6c5.9-0.4,11.7-0.4,17.6-0.4c4.3,0.1,7.5,1.4,11.4,1.8c3.5,0.4,6.7,0.5,10.2,0.5c3.5,0,5.9-0.4,9.1-0.9
	c7.3-1.1,16.5-1.3,22.8,1.7c4.9,2.3,10.6-0.3,16.2,0.9c3.1,0.7,6.2,1.5,9.1,2.4c2.5,0.8,5.2,0.9,7.6,1.6c2.4,0.7,10.2,1,10.9,0.6
	c1.5-1,2.5-1.5,4.6-1.7c3.3-0.4,10.2,0.4,12.7-1c1.7-1,3.7-1.2,5.5-1.9c4.2-1.8,7.8,0,12.2-0.9c4.9-1,10.7-0.8,15.9-1.1
	c4.6-0.3,7.2,0.1,11.2,1.5c2.1,0.7,6,1.1,8.4,0.7c3.5-0.5,5.6-2.9,9-3.8C1192.2,5.7,1197,6.2,1200,6.2z"/>
</svg>
