<svg width="250" height="79" viewBox="0 0 250 79" fill="none" xmlns="http://www.w3.org/2000/svg">
<g filter="url(#filter0_b_2227_890)">
<path d="M247.017 39.7003C247.017 58.8958 192.388 74.4569 125 74.4569C57.612 74.4569 2.98315 58.8958 2.98315 39.7003C2.98315 20.5048 57.612 4.94373 125 4.94373C192.388 4.94373 247.017 20.5048 247.017 39.7003Z" fill="#AC95C7" fill-opacity="0.1"/>
</g>
<g filter="url(#filter1_b_2227_890)">
<path fill-rule="evenodd" clip-rule="evenodd" d="M236.316 51.5776C242.316 47.5369 245.026 43.4859 245.026 39.7003C245.026 35.9147 242.316 31.8637 236.316 27.823C230.387 23.8299 221.676 20.1556 210.734 17.0386C188.876 10.8124 158.564 6.93482 125 6.93482C91.4366 6.93482 61.1246 10.8124 39.2666 17.0386C28.324 20.1556 19.6133 23.8299 13.6841 27.823C7.68416 31.8637 4.97425 35.9147 4.97425 39.7003C4.97425 43.4859 7.68416 47.5369 13.6841 51.5776C19.6133 55.5708 28.324 59.245 39.2666 62.362C61.1246 68.5883 91.4366 72.4658 125 72.4658C158.564 72.4658 188.876 68.5883 210.734 62.362C221.676 59.245 230.387 55.5708 236.316 51.5776ZM125 74.4569C192.388 74.4569 247.017 58.8958 247.017 39.7003C247.017 20.5048 192.388 4.94373 125 4.94373C57.612 4.94373 2.98315 20.5048 2.98315 39.7003C2.98315 58.8958 57.612 74.4569 125 74.4569Z" fill="#AC95C7"/>
</g>
<path d="M184.232 61.3844C184.181 61.1181 184.083 60.86 183.944 60.6214C183.729 60.3738 183.449 60.1863 183.136 60.0806C183.026 60.0199 182.679 60.5275 182.553 60.8318C182.424 61.142 182.322 61.4636 182.25 61.7933C181.824 63.3835 181.069 64.8586 180.028 66.1316C178.988 67.4047 177.684 68.4498 176.194 69.2055C175.711 69.5101 175.247 69.8405 174.804 70.1951C175.009 70.4511 175.065 70.5777 175.169 70.6349C175.371 70.7401 175.577 70.8356 175.788 70.9208C177.374 71.431 178.838 72.2793 180.067 73.4012C181.297 74.5231 182.26 75.889 182.883 77.3952C182.957 77.6071 183.054 77.8121 183.171 78.0067C183.484 78.4022 183.955 78.3441 184.23 77.8917C184.348 77.6891 184.437 77.4711 184.495 77.2432C185.451 73.7968 187.802 71.3263 190.697 69.2758L191.853 68.4352C191.849 68.3056 191.874 68.1684 191.876 68.0424C191.539 67.8427 191.181 67.68 190.81 67.5575C187.449 66.7202 185.369 64.5551 184.232 61.3844Z" fill="#AC95C7"/>
<path d="M74.7983 1.67377C74.7475 1.40752 74.65 1.14938 74.5102 0.910769C74.2952 0.663118 74.0154 0.475676 73.703 0.369957C73.593 0.309266 73.2454 0.816902 73.1197 1.12113C72.9902 1.43132 72.889 1.75299 72.8171 2.0827C72.3908 3.67286 71.6353 5.14798 70.5951 6.42101C69.555 7.69403 68.2511 8.73917 66.7606 9.49483C66.2781 9.79946 65.8141 10.1298 65.3706 10.4845C65.5754 10.7405 65.6321 10.8671 65.7356 10.9242C65.9372 11.0294 66.1438 11.1249 66.3545 11.2101C67.9407 11.7204 69.4042 12.5687 70.6338 13.6906C71.8633 14.8125 72.8264 16.1784 73.4501 17.6846C73.5239 17.8965 73.6202 18.1014 73.7372 18.296C74.0507 18.6916 74.5216 18.6335 74.7965 18.1811C74.9143 17.9784 75.0034 17.7604 75.0617 17.5326C76.018 14.0862 78.3685 11.6157 81.2639 9.56512L82.4199 8.72458C82.4154 8.59496 82.4405 8.45778 82.4425 8.33173C82.1055 8.13204 81.7478 7.96933 81.3765 7.84684C78.0152 7.00953 75.9352 4.84452 74.7983 1.67377Z" fill="#AC95C7"/>
<defs>
<filter id="filter0_b_2227_890" x="-21.3525" y="-19.3919" width="292.705" height="118.184" filterUnits="userSpaceOnUse" color-interpolation-filters="sRGB">
<feFlood flood-opacity="0" result="BackgroundImageFix"/>
<feGaussianBlur in="BackgroundImageFix" stdDeviation="12.1678"/>
<feComposite in2="SourceAlpha" operator="in" result="effect1_backgroundBlur_2227_890"/>
<feBlend mode="normal" in="SourceGraphic" in2="effect1_backgroundBlur_2227_890" result="shape"/>
</filter>
<filter id="filter1_b_2227_890" x="-21.3525" y="-19.3919" width="292.705" height="118.184" filterUnits="userSpaceOnUse" color-interpolation-filters="sRGB">
<feFlood flood-opacity="0" result="BackgroundImageFix"/>
<feGaussianBlur in="BackgroundImageFix" stdDeviation="12.1678"/>
<feComposite in2="SourceAlpha" operator="in" result="effect1_backgroundBlur_2227_890"/>
<feBlend mode="normal" in="SourceGraphic" in2="effect1_backgroundBlur_2227_890" result="shape"/>
</filter>
</defs>
</svg>
