<svg width="250" height="80" viewBox="0 0 250 80" fill="none" xmlns="http://www.w3.org/2000/svg">
<g filter="url(#filter0_b_2227_890)">
<path d="M247 40C247 59.33 192.379 75 125 75C57.6213 75 3 59.33 3 40C3 20.67 57.6213 5 125 5C192.379 5 247 20.67 247 40Z" fill="#AC95C7" fill-opacity="0.1"/>
<path d="M246 40C246 44.3269 242.936 48.6692 236.851 52.796C230.801 56.8997 221.981 60.6348 210.991 63.7875C189.026 70.089 158.623 74 125 74C91.3767 74 60.9739 70.089 39.0087 63.7875C28.0194 60.6348 19.1989 56.8997 13.1487 52.796C7.06437 48.6692 4 44.3269 4 40C4 35.6731 7.06437 31.3308 13.1487 27.204C19.1989 23.1003 28.0194 19.3652 39.0087 16.2125C60.9739 9.91102 91.3767 6 125 6C158.623 6 189.026 9.91102 210.991 16.2125C221.981 19.3652 230.801 23.1003 236.851 27.204C242.936 31.3308 246 35.6731 246 40Z" stroke="#AC95C7" stroke-width="2" stroke-linejoin="round"/>
</g>
<path d="M184.097 61.6551C184.046 61.3855 183.948 61.1241 183.809 60.8825C183.594 60.6317 183.314 60.4419 183.001 60.3348C182.891 60.2733 182.544 60.7874 182.418 61.0955C182.289 61.4096 182.187 61.7353 182.115 62.0692C181.689 63.6795 180.934 65.1733 179.893 66.4624C178.853 67.7516 177.549 68.81 176.059 69.5752C175.576 69.8837 175.112 70.2182 174.669 70.5773C174.874 70.8366 174.93 70.9648 175.034 71.0227C175.236 71.1292 175.442 71.2259 175.653 71.3122C177.239 71.8289 178.703 72.6879 179.932 73.824C181.162 74.9601 182.125 76.3434 182.748 77.8686C182.822 78.0832 182.919 78.2907 183.036 78.4878C183.349 78.8883 183.82 78.8295 184.095 78.3714C184.213 78.1662 184.302 77.9454 184.36 77.7147C185.316 74.2246 187.667 71.7229 190.562 69.6464L191.718 68.7952C191.714 68.6639 191.739 68.525 191.741 68.3974C191.404 68.1951 191.046 68.0304 190.675 67.9063C187.314 67.0584 185.234 64.866 184.097 61.6551Z" fill="#AC95C7"/>
<path d="M74.7983 1.69497C74.7475 1.42535 74.65 1.16395 74.5102 0.922318C74.2952 0.671532 74.0154 0.481717 73.703 0.37466C73.593 0.313201 73.2454 0.827262 73.1197 1.13534C72.9902 1.44946 72.889 1.7752 72.8171 2.10908C72.3908 3.71937 71.6353 5.21317 70.5951 6.5023C69.555 7.79144 68.2511 8.84981 66.7606 9.61504C66.2781 9.92353 65.8141 10.2581 65.3706 10.6172C65.5754 10.8765 65.6321 11.0047 65.7356 11.0625C65.9372 11.1691 66.1438 11.2658 66.3545 11.352C67.9407 11.8688 69.4042 12.7278 70.6338 13.8639C71.8633 15 72.8264 16.3832 73.4501 17.9085C73.5239 18.1231 73.6202 18.3306 73.7372 18.5277C74.0507 18.9282 74.5216 18.8693 74.7965 18.4112C74.9143 18.206 75.0034 17.9853 75.0617 17.7545C76.018 14.2645 78.3685 11.7628 81.2639 9.68622L82.4199 8.83504C82.4154 8.70378 82.4405 8.56486 82.4425 8.43721C82.1055 8.23499 81.7478 8.07023 81.3765 7.94619C78.0152 7.09827 75.9352 4.90586 74.7983 1.69497Z" fill="#AC95C7"/>
<defs>
<filter id="filter0_b_2227_890" x="-21.3356" y="-19.3356" width="292.671" height="118.671" filterUnits="userSpaceOnUse" color-interpolation-filters="sRGB">
<feFlood flood-opacity="0" result="BackgroundImageFix"/>
<feGaussianBlur in="BackgroundImageFix" stdDeviation="12.1678"/>
<feComposite in2="SourceAlpha" operator="in" result="effect1_backgroundBlur_2227_890"/>
<feBlend mode="normal" in="SourceGraphic" in2="effect1_backgroundBlur_2227_890" result="shape"/>
</filter>
</defs>
</svg>
