<svg width="250" height="80" viewBox="0 0 250 80" fill="none" xmlns="http://www.w3.org/2000/svg">
<g filter="url(#filter0_b_2227_890)">
<path d="M247.017 39.7003C247.017 58.8958 192.388 74.4569 125 74.4569C57.612 74.4569 2.98315 58.8958 2.98315 39.7003C2.98315 20.5048 57.612 4.94373 125 4.94373C192.388 4.94373 247.017 20.5048 247.017 39.7003Z" fill="#AC95C7" fill-opacity="0.1"/>
</g>
<g filter="url(#filter1_b_2227_890)">
<path fill-rule="evenodd" clip-rule="evenodd" d="M236.316 51.5776C242.316 47.5369 245.026 43.4859 245.026 39.7003C245.026 35.9147 242.316 31.8637 236.316 27.823C230.387 23.8299 221.676 20.1556 210.734 17.0386C188.876 10.8124 158.564 6.93482 125 6.93482C91.4366 6.93482 61.1246 10.8124 39.2666 17.0386C28.324 20.1556 19.6133 23.8299 13.6841 27.823C7.68416 31.8637 4.97425 35.9147 4.97425 39.7003C4.97425 43.4859 7.68416 47.5369 13.6841 51.5776C19.6133 55.5708 28.324 59.245 39.2666 62.362C61.1246 68.5883 91.4366 72.4658 125 72.4658C158.564 72.4658 188.876 68.5883 210.734 62.362C221.676 59.245 230.387 55.5708 236.316 51.5776ZM125 74.4569C192.388 74.4569 247.017 58.8958 247.017 39.7003C247.017 20.5048 192.388 4.94373 125 4.94373C57.612 4.94373 2.98315 20.5048 2.98315 39.7003C2.98315 58.8958 57.612 74.4569 125 74.4569Z" fill="#AC95C7"/>
</g>
<path d="M184.097 61.1485C184.046 60.8789 183.948 60.6175 183.809 60.3759C183.594 60.1251 183.314 59.9353 183.001 59.8282C182.891 59.7668 182.544 60.2808 182.418 60.5889C182.289 60.903 182.187 61.2288 182.115 61.5626C181.689 63.1729 180.934 64.6667 179.893 65.9559C178.853 67.245 177.549 68.3034 176.059 69.0686C175.576 69.3771 175.112 69.7116 174.669 70.0707C174.874 70.33 174.93 70.4582 175.034 70.5161C175.236 70.6226 175.442 70.7193 175.653 70.8056C177.239 71.3223 178.703 72.1813 179.932 73.3174C181.162 74.4535 182.125 75.8368 182.748 77.362C182.822 77.5766 182.919 77.7841 183.036 77.9812C183.349 78.3817 183.82 78.3229 184.095 77.8648C184.213 77.6596 184.302 77.4388 184.36 77.2081C185.316 73.718 187.667 71.2163 190.562 69.1398L191.718 68.2886C191.714 68.1573 191.739 68.0184 191.741 67.8908C191.404 67.6885 191.046 67.5238 190.675 67.3997C187.314 66.5518 185.234 64.3594 184.097 61.1485Z" fill="#F5A9A9"/>
<path d="M74.7983 1.69497C74.7475 1.42535 74.65 1.16395 74.5102 0.922318C74.2952 0.671532 74.0154 0.481717 73.703 0.37466C73.593 0.313201 73.2454 0.827262 73.1197 1.13534C72.9902 1.44946 72.889 1.7752 72.8171 2.10908C72.3908 3.71937 71.6353 5.21317 70.5951 6.5023C69.555 7.79144 68.2511 8.84981 66.7606 9.61504C66.2781 9.92353 65.8141 10.2581 65.3706 10.6172C65.5754 10.8765 65.6321 11.0047 65.7356 11.0625C65.9372 11.1691 66.1438 11.2658 66.3545 11.352C67.9407 11.8688 69.4042 12.7278 70.6338 13.8639C71.8633 15 72.8264 16.3832 73.4501 17.9085C73.5239 18.1231 73.6202 18.3306 73.7372 18.5277C74.0507 18.9282 74.5216 18.8693 74.7965 18.4112C74.9143 18.206 75.0034 17.9853 75.0617 17.7545C76.018 14.2645 78.3685 11.7628 81.2639 9.68622L82.4199 8.83504C82.4154 8.70378 82.4405 8.56486 82.4425 8.43721C82.1055 8.23499 81.7478 8.07023 81.3765 7.94619C78.0152 7.09827 75.9352 4.90586 74.7983 1.69497Z" fill="#AC95C7"/>
<defs>
<filter id="filter0_b_2227_890" x="-21.3525" y="-19.3919" width="292.705" height="118.184" filterUnits="userSpaceOnUse" color-interpolation-filters="sRGB">
<feFlood flood-opacity="0" result="BackgroundImageFix"/>
<feGaussianBlur in="BackgroundImageFix" stdDeviation="12.1678"/>
<feComposite in2="SourceAlpha" operator="in" result="effect1_backgroundBlur_2227_890"/>
<feBlend mode="normal" in="SourceGraphic" in2="effect1_backgroundBlur_2227_890" result="shape"/>
</filter>
<filter id="filter1_b_2227_890" x="-21.3525" y="-19.3919" width="292.705" height="118.184" filterUnits="userSpaceOnUse" color-interpolation-filters="sRGB">
<feFlood flood-opacity="0" result="BackgroundImageFix"/>
<feGaussianBlur in="BackgroundImageFix" stdDeviation="12.1678"/>
<feComposite in2="SourceAlpha" operator="in" result="effect1_backgroundBlur_2227_890"/>
<feBlend mode="normal" in="SourceGraphic" in2="effect1_backgroundBlur_2227_890" result="shape"/>
</filter>
</defs>
</svg>
