<svg width="100" height="100" viewBox="0 0 100 100" fill="none" xmlns="http://www.w3.org/2000/svg">
<path d="M49.0606 2.57296C49.3805 1.69689 50.6195 1.69689 50.9394 2.57296L55.8741 16.0895C56.1312 16.7937 57.043 16.9751 57.55 16.4229L67.2817 5.82365C67.9124 5.13667 69.0572 5.61082 69.0174 6.5426L68.4039 20.9187C68.372 21.6677 69.145 22.1842 69.8247 21.8681L82.8718 15.7998C83.7174 15.4065 84.5935 16.2826 84.2002 17.1282L78.1319 30.1753C77.8158 30.855 78.3323 31.628 79.0813 31.5961L93.4574 30.9826C94.3892 30.9428 94.8633 32.0876 94.1763 32.7183L83.5771 42.45C83.0249 42.957 83.2063 43.8688 83.9105 44.1259L97.427 49.0606C98.3031 49.3805 98.3031 50.6195 97.427 50.9394L83.9105 55.8741C83.2063 56.1312 83.0249 57.043 83.5771 57.55L94.1763 67.2817C94.8633 67.9124 94.3892 69.0572 93.4574 69.0174L79.0813 68.4039C78.3323 68.372 77.8158 69.145 78.1319 69.8247L84.2002 82.8718C84.5935 83.7174 83.7174 84.5935 82.8718 84.2002L69.8247 78.1319C69.145 77.8158 68.372 78.3323 68.4039 79.0813L69.0174 93.4574C69.0572 94.3892 67.9124 94.8633 67.2817 94.1763L57.55 83.5771C57.043 83.0249 56.1312 83.2063 55.8741 83.9105L50.9394 97.427C50.6195 98.3031 49.3805 98.3031 49.0606 97.427L44.1259 83.9105C43.8688 83.2063 42.957 83.0249 42.45 83.5771L32.7183 94.1763C32.0876 94.8633 30.9428 94.3892 30.9826 93.4574L31.5961 79.0813C31.628 78.3323 30.855 77.8158 30.1753 78.1319L17.1282 84.2002C16.2826 84.5935 15.4065 83.7174 15.7998 82.8718L21.8681 69.8247C22.1842 69.145 21.6677 68.372 20.9187 68.4039L6.54261 69.0174C5.61082 69.0572 5.13667 67.9124 5.82365 67.2817L16.4229 57.55C16.9751 57.043 16.7937 56.1312 16.0895 55.8741L2.57296 50.9394C1.69689 50.6195 1.69689 49.3805 2.57296 49.0606L16.0895 44.1259C16.7937 43.8688 16.9751 42.957 16.4229 42.45L5.82365 32.7183C5.13667 32.0876 5.61082 30.9428 6.5426 30.9826L20.9187 31.5961C21.6677 31.628 22.1842 30.855 21.8681 30.1753L15.7998 17.1282C15.4065 16.2826 16.2826 15.4065 17.1282 15.7998L30.1753 21.8681C30.855 22.1842 31.628 21.6677 31.5961 20.9187L30.9826 6.54261C30.9428 5.61082 32.0876 5.13667 32.7183 5.82365L42.45 16.4229C42.957 16.9751 43.8688 16.7937 44.1259 16.0895L49.0606 2.57296Z" fill="#1C1A21"/>
</svg>
