<svg width="100" height="100" viewBox="0 0 100 100" fill="none" xmlns="http://www.w3.org/2000/svg">
<g clip-path="url(#clip0_2220_840)">
<path d="M50 20.6074C53.345 20.6074 59.7969 9.03238 62.9788 10.0652C66.1606 11.0981 64.5744 24.2552 67.28 26.2216C69.9856 28.1879 82.0119 22.6131 83.9787 25.3199C85.9456 28.0267 76.9269 37.7366 77.96 40.9177C78.9931 44.0987 92 46.6555 92 49.9996C92 53.3437 78.995 55.9024 77.96 59.0816C76.925 62.2607 85.9437 71.9744 83.9787 74.6793C82.0137 77.3842 69.9856 71.8132 67.28 73.7777C64.5744 75.7422 66.155 88.8993 62.9788 89.934C59.8025 90.9687 53.345 79.3918 50 79.3918C46.655 79.3918 40.2031 90.9669 37.0212 89.9265C33.8394 88.8862 35.4256 75.7365 32.72 73.7702C30.0144 71.8038 17.9881 77.3767 16.0212 74.6718C14.0544 71.9669 23.0731 62.2551 22.04 59.0741C21.0069 55.8931 8 53.3419 8 49.9996C8 46.6574 21.005 44.0968 22.04 40.9158C23.075 37.7348 14.0562 28.023 16.0212 25.3181C17.9862 22.6131 30.0144 28.186 32.72 26.2197C35.4256 24.2533 33.845 11.0981 37.0212 10.0652C40.1975 9.03238 46.655 20.6074 50 20.6074Z" fill="black"/>
</g>
<defs>
<clipPath id="clip0_2220_840">
<rect width="84" height="80" fill="white" transform="translate(8 10)"/>
</clipPath>
</defs>
</svg>
