<svg width="100" height="100" viewBox="0 0 100 100" fill="none" xmlns="http://www.w3.org/2000/svg">
<path d="M47.3819 4.68001C48.5271 2.63291 51.4729 2.63292 52.6182 4.68001L57.5538 13.5026C58.3782 14.9763 60.2561 15.4795 61.707 14.6154L70.3926 9.44266C72.4079 8.24243 74.9591 9.71537 74.9274 12.0608L74.7905 22.1692C74.7676 23.8577 76.1423 25.2324 77.8308 25.2095L87.9392 25.0726C90.2846 25.0409 91.7576 27.5921 90.5573 29.6074L85.3846 38.293C84.5205 39.7439 85.0237 41.6218 86.4974 42.4462L95.32 47.3819C97.3671 48.5271 97.3671 51.4729 95.32 52.6182L86.4974 57.5538C85.0237 58.3782 84.5205 60.2561 85.3846 61.707L90.5573 70.3926C91.7576 72.4079 90.2846 74.9591 87.9392 74.9274L77.8308 74.7905C76.1423 74.7676 74.7676 76.1423 74.7905 77.8308L74.9274 87.9392C74.9591 90.2846 72.4079 91.7576 70.3926 90.5573L61.707 85.3846C60.2561 84.5205 58.3782 85.0237 57.5538 86.4974L52.6181 95.32C51.4729 97.3671 48.5271 97.3671 47.3818 95.32L42.4462 86.4974C41.6218 85.0237 39.7439 84.5205 38.293 85.3846L29.6074 90.5573C27.5921 91.7576 25.0409 90.2846 25.0726 87.9392L25.2095 77.8308C25.2324 76.1423 23.8577 74.7676 22.1692 74.7905L12.0608 74.9274C9.71537 74.9591 8.24243 72.4079 9.44266 70.3926L14.6154 61.707C15.4795 60.2561 14.9763 58.3782 13.5026 57.5538L4.68001 52.6181C2.63291 51.4729 2.63292 48.5271 4.68001 47.3818L13.5026 42.4462C14.9763 41.6218 15.4795 39.7439 14.6154 38.293L9.44266 29.6074C8.24243 27.5921 9.71537 25.0409 12.0608 25.0726L22.1692 25.2095C23.8577 25.2324 25.2324 23.8577 25.2095 22.1692L25.0726 12.0608C25.0409 9.71537 27.5921 8.24243 29.6074 9.44266L38.293 14.6154C39.7439 15.4795 41.6218 14.9763 42.4462 13.5026L47.3819 4.68001Z" fill="black"/>
</svg>
