<svg width="100" height="100" viewBox="0 0 100 100" fill="none" xmlns="http://www.w3.org/2000/svg">
<path d="M47.9535 1.90922C49.106 0.834032 50.894 0.834032 52.0465 1.90922L57.0308 6.55921C57.8629 7.33552 59.0626 7.57416 60.1285 7.17538L66.5128 4.78676C67.9891 4.23445 69.6409 4.91868 70.2942 6.35307L73.1197 12.5565C73.5914 13.5922 74.6084 14.2718 75.7458 14.3112L82.5582 14.5476C84.1334 14.6023 85.3977 15.8666 85.4524 17.4418L85.6888 24.2542C85.7282 25.3916 86.4078 26.4086 87.4435 26.8803L93.6469 29.7058C95.0813 30.3591 95.7655 32.0109 95.2132 33.4872L92.8246 39.8715C92.4258 40.9374 92.6645 42.1371 93.4408 42.9692L98.0908 47.9535C99.166 49.106 99.166 50.894 98.0908 52.0465L93.4408 57.0308C92.6645 57.8629 92.4258 59.0626 92.8246 60.1285L95.2132 66.5128C95.7655 67.9891 95.0813 69.6409 93.6469 70.2942L87.4435 73.1197C86.4078 73.5914 85.7282 74.6084 85.6888 75.7458L85.4524 82.5582C85.3977 84.1334 84.1334 85.3977 82.5582 85.4524L75.7458 85.6888C74.6084 85.7282 73.5914 86.4078 73.1197 87.4435L70.2942 93.6469C69.6409 95.0813 67.9891 95.7655 66.5128 95.2132L60.1285 92.8246C59.0626 92.4258 57.8629 92.6645 57.0308 93.4408L52.0465 98.0908C50.894 99.166 49.106 99.166 47.9535 98.0908L42.9692 93.4408C42.1371 92.6645 40.9374 92.4258 39.8715 92.8246L33.4872 95.2132C32.0109 95.7655 30.3591 95.0813 29.7058 93.6469L26.8803 87.4435C26.4086 86.4078 25.3916 85.7282 24.2542 85.6888L17.4418 85.4524C15.8666 85.3977 14.6023 84.1334 14.5476 82.5582L14.3112 75.7458C14.2718 74.6084 13.5922 73.5914 12.5565 73.1197L6.35307 70.2942C4.91868 69.6409 4.23445 67.9891 4.78676 66.5128L7.17538 60.1285C7.57416 59.0626 7.33552 57.8629 6.55921 57.0308L1.90922 52.0465C0.834032 50.894 0.834032 49.106 1.90922 47.9535L6.55921 42.9692C7.33552 42.1371 7.57416 40.9374 7.17538 39.8715L4.78676 33.4872C4.23445 32.0109 4.91868 30.3591 6.35307 29.7058L12.5565 26.8803C13.5922 26.4086 14.2718 25.3916 14.3112 24.2542L14.5476 17.4418C14.6023 15.8666 15.8666 14.6023 17.4418 14.5476L24.2542 14.3112C25.3916 14.2718 26.4086 13.5922 26.8803 12.5565L29.7058 6.35307C30.3591 4.91868 32.0109 4.23445 33.4872 4.78676L39.8715 7.17538C40.9374 7.57416 42.1371 7.33552 42.9692 6.55921L47.9535 1.90922Z" fill="#1C1A21"/>
</svg>
